<?xml version="1.0" encoding="utf-8"?>
<!-- Generator: Adobe Illustrator 26.2.1, SVG Export Plug-In . SVG Version: 6.00 Build 0)  -->
<svg version="1.1" id="Слой_1" xmlns="http://www.w3.org/2000/svg" xmlns:xlink="http://www.w3.org/1999/xlink" x="0px" y="0px"
	 viewBox="0 0 511 214.9" style="enable-background:new 0 0 511 214.9;" xml:space="preserve">
<style type="text/css">
	.st0{fill:#293275;}
</style>
<path class="st0" d="M230.6,24.5c-1.7,1.8-1.4,2.9,3.3,12.4c2.4,4.6,3.1,7.4,3.1,11.8c0,3.2,0.4,6.3,0.8,7c0.4,0.6,3,1.3,5.7,1.5
	l5,0.3l0.3,5.7l0.3,5.7l-3.8,1.8c-2.9,1.4-3.8,2.4-3.8,4.3c0,2.2,0.5,2.5,3.8,2.8c3.4,0.3,3.7,0.6,3.7,3.2c0,2.4-0.7,3.3-4,5
	c-2.5,1.3-4,2.7-4,3.9c0,2.7,2.6,4.4,5.5,3.7c2.3-0.6,2.5-0.4,2.5,2.8c0,2.8-0.5,3.6-3,4.6c-3.9,1.6-5.3,3.5-4.5,6
	c0.5,1.7,1.3,2.1,3.8,1.8c2.9-0.3,3.2,0,3.5,2.9s-0.1,3.4-3.5,5c-2.1,1-3.9,2.7-4.1,3.7c-0.5,2.3,2.3,4.7,4.5,3.9
	c0.8-0.3,2.5,0,3.7,0.7c3.2,1.7,5.9,0.9,6.6-1.9c0.3-1.4,1.9-3,4-4c5.5-2.6,4.9-7.5-0.9-7.3c-2.9,0.1-3.1-0.2-3.1-3.3
	c0-2.8,0.5-3.6,2.4-4.1c1.4-0.3,3.3-1.5,4.2-2.5c2.5-2.8,0.7-5.5-3.5-5.3c-2.9,0.2-3.1,0-3.1-3.2c0-2.9,0.5-3.6,3.5-4.8
	c1.9-0.8,3.8-2.2,4.1-3.1c1-2.4-1.6-4.7-4.8-4.3c-2.6,0.4-2.8,0.2-2.8-3.3c0-3.1,0.4-3.8,2.4-4.3C261,73,264,70.5,264,69
	c0-2-3.2-4-5.6-3.4c-2.4,0.6-2.5,0.5-2.2-3.7l0.3-4.4l4.5-0.3c6.2-0.5,7-1.4,7-8.8c0-5.3,0.6-7.6,3.7-13.9
	c5.6-11.2,6.1-10.9-19-11.3C235.2,23,232,23.2,230.6,24.5z M265,31.5c0,0.3-1.1,2.8-2.5,5.5c-1.4,2.8-2.5,6.6-2.5,9v4h-7.5H245v-3.8
	c0-2-1.1-6.1-2.5-9c-1.4-3-2.5-5.6-2.5-5.8c0-0.2,5.6-0.4,12.5-0.4S265,31.2,265,31.5z"/>
<path class="st0" d="M214.3,79l-6.1,6h-10c-8.2,0-10.1,0.3-10.6,1.6c-0.3,0.9-0.6,15.6-0.6,32.8c0,22.9,0.3,31.5,1.2,32.4
	c0.9,0.9,16.6,1.2,64.5,1.2c61.5,0,63.3-0.1,64.3-1.9c1.4-2.7,1.4-61.5,0-64.2c-0.9-1.7-2.2-1.9-10.6-1.9h-9.5l-6.4-6l-6.4-6h-7
	c-4.5,0-7.2,0.5-8,1.3c-0.7,0.9-1.2,10.6-1.3,28.8l-0.3,27.4l-15.2,0.3l-15.3,0.3v-27.9c0-20.3-0.3-28.1-1.2-29
	c-0.7-0.7-4.1-1.2-8.2-1.2h-7.1L214.3,79z M229,85.8c0,5.7-0.1,5.8-3.2,6.7c-2.6,0.8-3.3,1.5-3.3,3.5s0.7,2.7,3.3,3.5l3.2,0.9v17.2
	c0,14.4,0.3,17.5,1.6,18.8c1.3,1.4,4.7,1.6,21.7,1.6c11.1,0,20.8-0.4,21.4-0.8c1-0.6,1.3-7.9,1.5-28.7l0.3-28l2.3-0.3
	c1.8-0.3,4,1.2,8.7,5.7l6.3,6.1h8.6h8.6v12.5V117h-2.4c-2,0-5.6,2.2-5.6,3.5c0,2,1.8,3.6,4.6,4.1l3.4,0.6v10.4V146h-57.5H195v-27V92
	h8.2h8.1l6.3-6c4.3-4.2,7-6,8.8-6C228.9,80,229,80.2,229,85.8z"/>
<path class="st0" d="M288,101.5c-0.6,0.8-0.9,2.3-0.5,3.5c0.6,1.9,1.3,2.1,6.3,1.8c5.1-0.3,5.7-0.5,6-2.7c0.2-1.3-0.2-2.8-1-3.2
	C296.6,99.5,289.4,99.9,288,101.5z"/>
<path class="st0" d="M202.8,110.1c-2.2,1.3-2.3,5.5-0.2,6.3c2.7,1,7.9,0.7,9.8-0.7C217.5,112,208.5,106.8,202.8,110.1z"/>
<path class="st0" d="M281.5,133c-1,3.1,1.2,5,5.9,5c5.2,0,6.9-1.1,6.4-4.1c-0.3-2.2-0.9-2.4-6-2.7
	C282.8,130.9,282.1,131.1,281.5,133z"/>
<path class="st0" d="M211,132.7c-5.4,2.1-2.6,7.3,4,7.3c4.7,0,7.5-2.3,6-5C219.5,132.2,215,131.2,211,132.7z"/>
<g>
	<g>
		<path d="M92.2,170.1H103c6.9,0,12.4,2.5,12.4,10.1c0,7.4-5.6,10.6-12.2,10.6h-3.9v10.6h-7.1V170.1z M102.7,185.1
			c3.9,0,5.7-1.7,5.7-5c0-3.3-2.1-4.4-5.9-4.4h-3.3v9.4H102.7z"/>
		<path d="M120.8,170.1h19.6v5.9h-12.5v6.3h10.7v5.9h-10.7v7.2h13v5.9h-20.1V170.1z"/>
		<path d="M145.6,185.9c0-10.4,6.9-16.4,14.8-16.4c4,0,7.3,1.9,9.4,4.1l-3.7,4.5c-1.6-1.5-3.3-2.5-5.5-2.5c-4.3,0-7.7,3.8-7.7,10.1
			c0,6.4,3,10.2,7.6,10.2c2.6,0,4.6-1.3,6.1-2.9l3.7,4.4c-2.6,3-6.1,4.6-10.1,4.6C152.3,201.9,145.6,196.4,145.6,185.9z"/>
		<path d="M174.9,201.3l1.3-6.1c0.6,0.2,1.1,0.4,2.4,0.4c1.4,0,2.4-0.4,3-1.4l0.5-0.9l-10.6-23.1h7.5l3.6,9.1l2.6,7.5h0.2l2.5-7.5
			l3.3-9.1h7.1l-9.7,24.2c-1.9,4.8-4.8,7.7-9.7,7.7C177.1,201.9,175.9,201.7,174.9,201.3z"/>
		<path d="M201.7,170.1h10.7c6.9,0,12.4,2.5,12.4,10.1c0,7.4-5.6,10.6-12.2,10.6h-3.9v10.6h-7.1V170.1z M212.2,185.1
			c3.9,0,5.7-1.7,5.7-5c0-3.3-2.1-4.4-5.9-4.4h-3.3v9.4H212.2z"/>
		<path d="M228.8,185.9c0-10.4,6.9-16.4,14.8-16.4c4,0,7.3,1.9,9.4,4.1l-3.7,4.5c-1.6-1.5-3.3-2.5-5.5-2.5c-4.3,0-7.7,3.8-7.7,10.1
			c0,6.4,3,10.2,7.6,10.2c2.6,0,4.6-1.3,6.1-2.9l3.7,4.4c-2.6,3-6.1,4.6-10.1,4.6C235.4,201.9,228.8,196.4,228.8,185.9z"/>
		<path d="M255.6,197.3l3.7-4.4c1.7,1.7,3.8,2.9,6.6,2.9c4.5,0,7.3-3,7.3-10.2c0-7-2.8-10-7.5-10c-2.4,0-4.2,0.9-6,2.5l-3.7-4.5
			c2.3-2.2,6-4.1,10.1-4.1c8,0,14.1,5.3,14.1,16.4s-6.4,16-14.2,16C261.9,201.9,258.4,200.4,255.6,197.3z M262.2,182.3h14v5.9h-14
			V182.3z"/>
		<path d="M286.2,170.1h7.1v12.1H304v-12.1h7.1v31.3H304v-13.1h-10.8v13.1h-7.1V170.1z"/>
		<path d="M318.5,170.1h19.6v5.9h-12.5v6.3h10.7v5.9h-10.7v7.2h13v5.9h-20.1V170.1z"/>
		<path d="M344.8,170.1h10.7c6.9,0,12.4,2.5,12.4,10.1c0,7.4-5.6,10.6-12.2,10.6h-3.9v10.6h-7.1V170.1z M355.4,185.1
			c3.9,0,5.7-1.7,5.7-5c0-3.3-2.1-4.4-5.9-4.4h-3.3v9.4H355.4z"/>
		<path d="M373.4,170.1h19.7v5.9h-12.7v25.4h-7.1V170.1z"/>
		<path d="M397,185.6c0-10.2,5.8-16.1,14.2-16.1c8.4,0,14.2,5.9,14.2,16.1c0,10.2-5.8,16.4-14.2,16.4
			C402.7,201.9,397,195.8,397,185.6z M418.1,185.6c0-6.3-2.7-10-7-10c-4.3,0-7,3.7-7,10c0,6.3,2.7,10.2,7,10.2
			C415.4,195.8,418.1,191.8,418.1,185.6z"/>
	</g>
</g>
</svg>
